<svg xmlns="http://www.w3.org/2000/svg" height="24px" viewBox="0 -960 960 960" width="24px" fill="#686868"><path d="M371-200h218l-20-80H391l-20 80Zm-11-160h240q83 0 141.5-58.5T800-560q0-83-58.5-141.5T600-760H360q-83 0-141.5 58.5T160-560q0 83 58.5 141.5T360-360Zm63.5-143.5Q400-527 400-560t23.5-56.5Q447-640 480-640t56.5 23.5Q560-593 560-560t-23.5 56.5Q513-480 480-480t-56.5-23.5ZM260-600q17 0 28.5-11.5T300-640q0-17-11.5-28.5T260-680q-17 0-28.5 11.5T220-640q0 17 11.5 28.5T260-600ZM160-120v-80h129l21-84q-99-17-164.5-94.5T80-560q0-117 81.5-198.5T360-840h240q117 0 198.5 81.5T880-560q0 104-65.5 181.5T650-284l21 84h129v80H160Zm433-327q47-47 47-113t-47-113q-47-47-113-47t-113 47q-47 47-47 113t47 113q47 47 113 47t113-47ZM480-560ZM371-200h218-218Z"/></svg>